TITLE ""
FILE "P1Q_t_0010-0019.mp3" MP3
  TRACK 01 AUDIO
    TITLE "P1Q_t_0010-0019_01"
    INDEX 01 00:00:00
  TRACK 02 AUDIO
    TITLE "P1Q_t_0010-0019_02"
    INDEX 01 00:00:08
  TRACK 03 AUDIO
    TITLE "P1Q_t_0010-0019_03"
    INDEX 01 00:01:25
  TRACK 04 AUDIO
    TITLE "P1Q_t_0010-0019_04"
    INDEX 01 00:01:45
  TRACK 05 AUDIO
    TITLE "P1Q_t_0010-0019_05"
    INDEX 01 00:04:51
  TRACK 06 AUDIO
    TITLE "P1Q_t_0010-0019_06"
    INDEX 01 00:04:71
  TRACK 07 AUDIO
    TITLE "P1Q_t_0010-0019_07"
    INDEX 01 00:09:56
  TRACK 08 AUDIO
    TITLE "P1Q_t_0010-0019_08"
    INDEX 01 00:10:26
  TRACK 09 AUDIO
    TITLE "P1Q_t_0010-0019_09"
    INDEX 01 00:11:39
  TRACK 10 AUDIO
    TITLE "P1Q_t_0010-0019_10"
    INDEX 01 00:11:59
  TRACK 11 AUDIO
    TITLE "P1Q_t_0010-0019_11"
    INDEX 01 00:14:71
  TRACK 12 AUDIO
    TITLE "P1Q_t_0010-0019_12"
    INDEX 01 00:15:16
  TRACK 13 AUDIO
    TITLE "P1Q_t_0010-0019_13"
    INDEX 01 00:19:61
  TRACK 14 AUDIO
    TITLE "P1Q_t_0010-0019_14"
    INDEX 01 00:20:33
  TRACK 15 AUDIO
    TITLE "P1Q_t_0010-0019_15"
    INDEX 01 00:21:52
  TRACK 16 AUDIO
    TITLE "P1Q_t_0010-0019_16"
    INDEX 01 00:21:73
  TRACK 17 AUDIO
    TITLE "P1Q_t_0010-0019_17"
    INDEX 01 00:23:25
  TRACK 18 AUDIO
    TITLE "P1Q_t_0010-0019_18"
    INDEX 01 00:23:45
  TRACK 19 AUDIO
    TITLE "P1Q_t_0010-0019_19"
    INDEX 01 00:27:56
  TRACK 20 AUDIO
    TITLE "P1Q_t_0010-0019_20"
    INDEX 01 00:28:28
  TRACK 21 AUDIO
    TITLE "P1Q_t_0010-0019_21"
    INDEX 01 00:29:39
  TRACK 22 AUDIO
    TITLE "P1Q_t_0010-0019_22"
    INDEX 01 00:29:63
  TRACK 23 AUDIO
    TITLE "P1Q_t_0010-0019_23"
    INDEX 01 00:31:56
  TRACK 24 AUDIO
    TITLE "P1Q_t_0010-0019_24"
    INDEX 01 00:32:01
  TRACK 25 AUDIO
    TITLE "P1Q_t_0010-0019_25"
    INDEX 01 00:37:41
  TRACK 26 AUDIO
    TITLE "P1Q_t_0010-0019_26"
    INDEX 01 00:38:11
  TRACK 27 AUDIO
    TITLE "P1Q_t_0010-0019_27"
    INDEX 01 00:39:38
  TRACK 28 AUDIO
    TITLE "P1Q_t_0010-0019_28"
    INDEX 01 00:39:61
  TRACK 29 AUDIO
    TITLE "P1Q_t_0010-0019_29"
    INDEX 01 00:42:19
  TRACK 30 AUDIO
    TITLE "P1Q_t_0010-0019_30"
    INDEX 01 00:42:36
  TRACK 31 AUDIO
    TITLE "P1Q_t_0010-0019_31"
    INDEX 01 00:47:27
  TRACK 32 AUDIO
    TITLE "P1Q_t_0010-0019_32"
    INDEX 01 00:47:73
  TRACK 33 AUDIO
    TITLE "P1Q_t_0010-0019_33"
    INDEX 01 00:49:19
  TRACK 34 AUDIO
    TITLE "P1Q_t_0010-0019_34"
    INDEX 01 00:49:42
  TRACK 35 AUDIO
    TITLE "P1Q_t_0010-0019_35"
    INDEX 01 00:52:74
  TRACK 36 AUDIO
    TITLE "P1Q_t_0010-0019_36"
    INDEX 01 00:53:18
  TRACK 37 AUDIO
    TITLE "P1Q_t_0010-0019_37"
    INDEX 01 00:58:29
  TRACK 38 AUDIO
    TITLE "P1Q_t_0010-0019_38"
    INDEX 01 00:58:74
  TRACK 39 AUDIO
    TITLE "P1Q_t_0010-0019_39"
    INDEX 01 01:00:20
  TRACK 40 AUDIO
    TITLE "P1Q_t_0010-0019_40"
    INDEX 01 01:00:40
  TRACK 41 AUDIO
    TITLE "P1Q_t_0010-0019_41"
    INDEX 01 01:03:48
  TRACK 42 AUDIO
    TITLE "P1Q_t_0010-0019_42"
    INDEX 01 01:03:68
  TRACK 43 AUDIO
    TITLE "P1Q_t_0010-0019_43"
    INDEX 01 01:09:15
  TRACK 44 AUDIO
    TITLE "P1Q_t_0010-0019_44"
    INDEX 01 01:09:62
  TRACK 45 AUDIO
    TITLE "P1Q_t_0010-0019_45"
    INDEX 01 01:11:01
  TRACK 46 AUDIO
    TITLE "P1Q_t_0010-0019_46"
    INDEX 01 01:11:22
  TRACK 47 AUDIO
    TITLE "P1Q_t_0010-0019_47"
    INDEX 01 01:12:72
  TRACK 48 AUDIO
    TITLE "P1Q_t_0010-0019_48"
    INDEX 01 01:13:19
  TRACK 49 AUDIO
    TITLE "P1Q_t_0010-0019_49"
    INDEX 01 01:17:05
  TRACK 50 AUDIO
    TITLE "P1Q_t_0010-0019_50"
    INDEX 01 01:17:52
  TRACK 51 AUDIO
    TITLE "P1Q_t_0010-0019_51"
    INDEX 01 01:18:71
  TRACK 52 AUDIO
    TITLE "P1Q_t_0010-0019_52"
    INDEX 01 01:19:18
  TRACK 53 AUDIO
    TITLE "P1Q_t_0010-0019_53"
    INDEX 01 01:23:49
  TRACK 54 AUDIO
    TITLE "P1Q_t_0010-0019_54"
    INDEX 01 01:23:70
  TRACK 55 AUDIO
    TITLE "P1Q_t_0010-0019_55"
    INDEX 01 01:28:07
  TRACK 56 AUDIO
    TITLE "P1Q_t_0010-0019_56"
    INDEX 01 01:28:52
  TRACK 57 AUDIO
    TITLE "P1Q_t_0010-0019_57"
    INDEX 01 01:30:06
  TRACK 58 AUDIO
    TITLE "P1Q_t_0010-0019_58"
    INDEX 01 01:30:27
  TRACK 59 AUDIO
    TITLE "P1Q_t_0010-0019_59"
    INDEX 01 01:31:74
  TRACK 60 AUDIO
    TITLE "P1Q_t_0010-0019_60"
    INDEX 01 01:32:18
  TRACK 61 AUDIO
    TITLE "P1Q_t_0010-0019_61"
    INDEX 01 01:36:69
